<svg width="203" height="44" viewBox="0 0 203 44" fill="none" xmlns="http://www.w3.org/2000/svg">
<path fill-rule="evenodd" clip-rule="evenodd" d="M34.3735 30.931L21.745 38.0911L21.7692 43.9859C23.8753 43.7866 37.2313 35.762 39.7749 34.0823C39.7749 30.4763 40.467 16.3991 39.3935 14.2064C38.4439 14.0161 37.4189 14.7421 36.1163 15.5616C34.1299 16.8102 34.3389 16.9909 34.341 19.6452C34.3452 23.4041 34.3735 27.1693 34.3735 30.931Z" fill="#0582D2"/>
<path fill-rule="evenodd" clip-rule="evenodd" d="M0.161651 34.0822C2.66716 35.7377 16.129 43.7927 18.1674 43.9858V38.1332L5.60247 30.8624C5.56371 27.4744 5.53948 24.0166 5.57963 20.5608C5.60524 18.438 5.92777 17.2109 4.63834 16.1C4.50752 15.9872 1.22614 14.1489 1.18946 14.1427C-0.601768 13.8416 0.161651 19.7524 0.161651 23.2781C0.161651 26.8792 0.161651 30.481 0.161651 34.0822Z" fill="#34D1BF"/>
<path fill-rule="evenodd" clip-rule="evenodd" d="M2.944 9.85561C7.60479 13.9239 8.17165 11.9528 17.5749 6.46073C22.507 3.58009 26.6605 10.5685 33.0613 12.5134L37.4874 9.78363C36.3925 8.59317 22.0661 0.162358 20.304 0.00178433C18.7252 -0.142178 3.76002 8.46928 2.944 9.85561Z" fill="#03B6F0"/>
<path fill-rule="evenodd" clip-rule="evenodd" d="M19.9684 22.0433V33.6316C22.6393 33.408 28.375 29.3639 30.7725 27.7796C30.7725 25 31.7622 17.9403 30.3219 16.2571L19.9684 22.0433Z" fill="#0582D2"/>
<path fill-rule="evenodd" clip-rule="evenodd" d="M19.9683 22.0434L30.3218 16.2572C29.6996 15.145 21.6668 10.1983 20.2721 10.0149C18.955 9.84188 11.3167 14.5366 9.71234 15.7229L19.9683 22.0434Z" fill="#03B6F0"/>
<path fill-rule="evenodd" clip-rule="evenodd" d="M173.502 20.9028C177.378 18.9793 179.305 25.3587 175.894 26.6426C172.01 28.1057 170.146 22.568 173.502 20.9028ZM168.97 19.2271C168.97 22.4033 168.267 30.9061 169.333 33.2697C170.582 33.5583 170.927 33.078 172.122 32.2813V28.6802C174.827 28.91 175.859 29.9676 178.526 27.8822C181.485 25.5691 180.84 21.3658 178.628 19.4735C176.382 17.5536 174.335 18.272 172.408 19.1039C169.914 20.1809 171.459 19.4368 168.97 19.2271Z" fill="white"/>
<path fill-rule="evenodd" clip-rule="evenodd" d="M112.646 20.8432C116.394 19.0069 118.442 25.2257 115.109 26.619C111.138 28.278 109.231 22.516 112.646 20.8432ZM108.199 19.227C108.199 22.4032 107.495 30.906 108.561 33.2696C109.35 33.4544 109.764 33.2572 110.9 32.7318V28.6801C113.419 28.9334 115.001 29.9308 117.496 28.0731C121.465 25.1191 119.407 15.8287 111.643 19.1121C109.314 20.0977 110.594 19.4637 108.199 19.227Z" fill="white"/>
<path fill-rule="evenodd" clip-rule="evenodd" d="M60.9326 27.7796L59.5843 25.5274C48.8882 30.4152 48.9511 12.5057 59.5822 17.426L60.9879 15.2105C49.1525 9.36967 44.3665 24.0622 52.3827 28.2267C55.7298 29.9653 57.8671 29.2843 60.9326 27.7796Z" fill="white"/>
<path fill-rule="evenodd" clip-rule="evenodd" d="M133.742 28.3459L135.651 28.7466L136.566 25.0805C138.731 26.5 137.325 26.9693 139.376 29.0145C141.357 27.8794 140.689 25.9103 142.862 25.0791C142.865 29.708 146.378 30.2479 145.659 26.4363C145.245 24.2451 144.449 19.7711 143.762 18.3267C141.311 19.0229 141.866 22.1922 139.711 23.7287C137.844 22.3985 137.975 19.6562 136.11 18.3267C134.736 19.3815 133.28 27.1548 133.742 28.3459Z" fill="white"/>
<path fill-rule="evenodd" clip-rule="evenodd" d="M185.176 23.2781V19.2271L182.946 18.6706C182.106 20.5539 182.094 26.9865 182.809 28.7958C185.21 29.209 186.114 24.9095 189.228 24.6284V28.2296L191.914 28.7833C192.665 27.0841 193.135 19.2776 191.754 18.5799C190.199 17.7958 187.343 22.6919 185.176 23.2781Z" fill="white"/>
<path fill-rule="evenodd" clip-rule="evenodd" d="M77.4357 22.6186C78.3894 20.3179 80.1163 19.7898 82.1013 21.4918L80.2056 22.2261C79.3141 22.3902 78.3368 22.5037 77.4357 22.6186ZM84.341 27.7797C83.606 25.0285 83.098 26.473 81.0783 26.7734C79.1992 27.053 78.0565 26.3581 77.5886 24.6285C79.1348 24.596 81.1386 24.0686 82.6439 23.8242C84.485 23.5266 85.7917 23.4796 84.7245 21.1713C83.3831 18.2699 79.2615 17.4082 76.6743 19.2167C74.3301 20.8557 73.6373 25.0673 75.6874 27.4295C77.7153 29.7655 82.5526 29.6257 84.341 27.7797Z" fill="white"/>
<path fill-rule="evenodd" clip-rule="evenodd" d="M149.697 22.5624C150.383 20.1413 152.66 19.9724 154.403 21.5712C153.446 22.2191 151.239 22.4509 149.697 22.5624ZM156.25 26.9954C154.954 25.9732 153.696 26.8833 151.415 26.8792L149.994 25.1447C151.626 23.975 154.735 23.7244 156.816 23.7286C159.065 18.8076 149.798 15.1372 147.052 22.1007C144.776 27.8737 152.267 30.5806 155.396 28.5922C156.734 27.7422 156.293 28.7444 156.25 26.9954Z" fill="white"/>
<path fill-rule="evenodd" clip-rule="evenodd" d="M125.283 20.8744C128.962 18.9613 130.997 25.1919 127.706 26.6121C124.064 28.1839 121.742 22.7161 125.283 20.8744ZM124.405 18.7765C117.252 21.5852 121.316 31.2888 128.617 28.8463C134.989 26.7159 132.08 15.763 124.405 18.7765Z" fill="white"/>
<path fill-rule="evenodd" clip-rule="evenodd" d="M62.7335 28.2295H65.8197C65.8848 23.6009 65.8848 23.5 65.8848 21.0272H69.9358V28.2295H72.313C72.676 24.605 72.6524 24.049 72.676 21.8875C72.7216 17.8504 72.1576 18.7363 68.1418 18.7667C65.2861 18.7882 62.9723 17.8386 62.6872 20.5344C62.5 22.3041 62.7335 26.1663 62.7335 28.2295Z" fill="white"/>
<path fill-rule="evenodd" clip-rule="evenodd" d="M199.706 20.5775L199.7 23.3391L197.068 23.011L197.174 20.8488L199.706 20.5775ZM195.864 24.9635C194.971 26.5097 193.832 26.9997 194.064 28.3459C197.789 29.8257 196.671 26.3166 199.581 25.5289C199.581 27.2703 199.226 27.3942 200.147 28.5639L202.282 28.6975C203.119 26.8668 202.725 24.4091 202.759 22.3521C202.818 18.8707 203.236 18.6492 199.596 18.7129C191.335 18.8555 194.988 23.474 195.864 24.9635Z" fill="white"/>
<path fill-rule="evenodd" clip-rule="evenodd" d="M90.193 21.9277C90.193 20.187 90.5481 20.0624 89.6269 18.892L87.4923 18.7591C86.45 21.0369 87.0418 25.5697 87.0418 28.2295L89.7279 28.7832L90.2878 25.0872C93.073 25.8576 92.4127 29.8346 96.1606 28.3458C96.4076 26.9096 93.7443 24.6623 93.0093 23.3943C94.287 21.1567 95.9031 20.3877 96.045 18.7764C92.6439 17.2039 92.4791 21.0528 90.193 21.9277Z" fill="white"/>
<path fill-rule="evenodd" clip-rule="evenodd" d="M97.3954 20.1267C98.3733 21.5221 98.4924 21.0313 100.547 21.0272V28.2295L103.233 28.7832C104.22 26.5697 103.698 23.4171 103.698 21.0272C105.931 21.0272 106.628 21.2362 106.848 18.7764C104.598 18.7764 97.821 17.6932 97.3954 20.1267Z" fill="white"/>
<path fill-rule="evenodd" clip-rule="evenodd" d="M158.167 20.1267C159.145 21.5221 159.263 21.0313 161.318 21.0272V28.2295L164.004 28.7832C164.992 26.5697 164.469 23.4171 164.469 21.0272C166.703 21.0272 167.399 21.2362 167.62 18.7764C165.37 18.7764 158.592 17.6932 158.167 20.1267Z" fill="white"/>
</svg>
