<svg width="203" height="44" viewBox="0 0 203 44" fill="none" xmlns="http://www.w3.org/2000/svg">
<path fill-rule="evenodd" clip-rule="evenodd" d="M34.3735 30.9309L21.745 38.091L21.7692 43.9859C23.8753 43.7865 37.2313 35.762 39.7749 34.0822C39.7749 30.4762 40.467 16.399 39.3935 14.2064C38.4439 14.016 37.4189 14.7421 36.1163 15.5615C34.1299 16.8101 34.3389 16.9908 34.341 19.6451C34.3452 23.404 34.3735 27.1692 34.3735 30.9309Z" fill="#0582D2"/>
<path fill-rule="evenodd" clip-rule="evenodd" d="M0.161651 34.0822C2.66716 35.7377 16.129 43.7927 18.1674 43.9858V38.1332L5.60247 30.8624C5.56371 27.4744 5.53948 24.0165 5.57963 20.5607C5.60524 18.438 5.92777 17.2109 4.63834 16.1C4.50752 15.9872 1.22614 14.1489 1.18946 14.1426C-0.601768 13.8416 0.161651 19.7523 0.161651 23.278C0.161651 26.8792 0.161651 30.481 0.161651 34.0822Z" fill="#34D1BF"/>
<path fill-rule="evenodd" clip-rule="evenodd" d="M2.944 9.85561C7.60479 13.9239 8.17165 11.9528 17.5749 6.46073C22.507 3.58009 26.6605 10.5685 33.0613 12.5134L37.4874 9.78363C36.3925 8.59317 22.0661 0.162358 20.304 0.00178433C18.7252 -0.142178 3.76002 8.46928 2.944 9.85561Z" fill="#03B6F0"/>
<path fill-rule="evenodd" clip-rule="evenodd" d="M19.9684 22.0433V33.6316C22.6393 33.408 28.375 29.3639 30.7725 27.7796C30.7725 25 31.7622 17.9403 30.3219 16.2571L19.9684 22.0433Z" fill="#0582D2"/>
<path fill-rule="evenodd" clip-rule="evenodd" d="M19.9683 22.0433L30.3218 16.2571C29.6996 15.1448 21.6668 10.1982 20.2721 10.0148C18.955 9.84176 11.3167 14.5365 9.71234 15.7228L19.9683 22.0433Z" fill="#03B6F0"/>
<path fill-rule="evenodd" clip-rule="evenodd" d="M173.502 20.9027C177.378 18.9792 179.305 25.3586 175.894 26.6425C172.01 28.1056 170.146 22.5679 173.502 20.9027ZM168.97 19.227C168.97 22.4032 168.267 30.906 169.333 33.2696C170.582 33.5582 170.927 33.0779 172.122 32.2812V28.6801C174.827 28.9099 175.859 29.9675 178.526 27.8821C181.485 25.569 180.84 21.3657 178.628 19.4734C176.382 17.5535 174.335 18.2719 172.408 19.1038C169.914 20.1808 171.459 19.4367 168.97 19.227Z" fill="#070707"/>
<path fill-rule="evenodd" clip-rule="evenodd" d="M112.646 20.8432C116.394 19.0069 118.442 25.2257 115.109 26.619C111.138 28.278 109.231 22.516 112.646 20.8432ZM108.199 19.227C108.199 22.4032 107.495 30.906 108.561 33.2696C109.35 33.4544 109.764 33.2572 110.9 32.7318V28.6801C113.419 28.9334 115.001 29.9308 117.496 28.0731C121.465 25.1191 119.407 15.8287 111.643 19.1121C109.314 20.0977 110.594 19.4637 108.199 19.227Z" fill="#070707"/>
<path fill-rule="evenodd" clip-rule="evenodd" d="M60.9326 27.7796L59.5843 25.5274C48.8882 30.4153 48.9511 12.5058 59.5822 17.4261L60.9879 15.2106C49.1525 9.36973 44.3665 24.0622 52.3827 28.2267C55.7298 29.9654 57.8671 29.2843 60.9326 27.7796Z" fill="#070707"/>
<path fill-rule="evenodd" clip-rule="evenodd" d="M133.742 28.3458L135.651 28.7466L136.566 25.0804C138.731 26.4999 137.325 26.9692 139.376 29.0144C141.357 27.8793 140.689 25.9102 142.862 25.079C142.865 29.7079 146.378 30.2478 145.659 26.4362C145.245 24.245 144.449 19.771 143.762 18.3266C141.311 19.0228 141.866 22.1921 139.711 23.7286C137.844 22.3984 137.975 19.6561 136.11 18.3266C134.736 19.3814 133.28 27.1547 133.742 28.3458Z" fill="#070707"/>
<path fill-rule="evenodd" clip-rule="evenodd" d="M185.176 23.2781V19.227L182.946 18.6706C182.106 20.5538 182.094 26.9865 182.809 28.7957C185.21 29.2089 186.114 24.9094 189.228 24.6284V28.2295L191.914 28.7832C192.665 27.0841 193.135 19.2776 191.754 18.5799C190.199 17.7957 187.343 22.6918 185.176 23.2781Z" fill="#070707"/>
<path fill-rule="evenodd" clip-rule="evenodd" d="M77.4357 22.6184C78.3894 20.3178 80.1163 19.7897 82.1013 21.4917L80.2056 22.226C79.3141 22.39 78.3368 22.5036 77.4357 22.6184ZM84.341 27.7796C83.606 25.0284 83.098 26.4729 81.0783 26.7733C79.1992 27.0529 78.0565 26.358 77.5886 24.6284C79.1348 24.5959 81.1386 24.0685 82.6439 23.8241C84.485 23.5265 85.7917 23.4794 84.7245 21.1712C83.3831 18.2698 79.2615 17.4081 76.6743 19.2166C74.3301 20.8556 73.6373 25.0672 75.6874 27.4294C77.7153 29.7654 82.5526 29.6255 84.341 27.7796Z" fill="#070707"/>
<path fill-rule="evenodd" clip-rule="evenodd" d="M149.697 22.5624C150.383 20.1414 152.66 19.9725 154.403 21.5713C153.446 22.2191 151.239 22.451 149.697 22.5624ZM156.25 26.9955C154.954 25.9732 153.696 26.8834 151.415 26.8792L149.994 25.1447C151.626 23.9751 154.735 23.7245 156.816 23.7287C159.065 18.8076 149.798 15.1373 147.052 22.1008C144.776 27.8738 152.267 30.5807 155.396 28.5922C156.734 27.7423 156.293 28.7445 156.25 26.9955Z" fill="#070707"/>
<path fill-rule="evenodd" clip-rule="evenodd" d="M125.283 20.8743C128.962 18.9613 130.997 25.1918 127.706 26.612C124.064 28.1839 121.742 22.7161 125.283 20.8743ZM124.405 18.7765C117.252 21.5851 121.316 31.2887 128.617 28.8462C134.989 26.7159 132.08 15.7629 124.405 18.7765Z" fill="#070707"/>
<path fill-rule="evenodd" clip-rule="evenodd" d="M62.7335 28.2295H65.8197C65.8848 23.6009 65.8848 23.5 65.8848 21.0272H69.9358V28.2295H72.313C72.676 24.605 72.6524 24.0491 72.676 21.8875C72.7216 17.8504 72.1576 18.7363 68.1418 18.7667C65.2861 18.7882 62.9723 17.8386 62.6872 20.5344C62.5 22.3041 62.7335 26.1663 62.7335 28.2295Z" fill="#070707"/>
<path fill-rule="evenodd" clip-rule="evenodd" d="M199.706 20.5774L199.7 23.339L197.068 23.0109L197.174 20.8487L199.706 20.5774ZM195.864 24.9634C194.971 26.5096 193.832 26.9996 194.064 28.3458C197.789 29.8256 196.671 26.3165 199.581 25.5289C199.581 27.2703 199.226 27.3942 200.147 28.5638L202.282 28.6974C203.119 26.8667 202.725 24.409 202.759 22.352C202.818 18.8706 203.236 18.6491 199.596 18.7128C191.335 18.8554 194.988 23.4739 195.864 24.9634Z" fill="#070707"/>
<path fill-rule="evenodd" clip-rule="evenodd" d="M90.193 21.9277C90.193 20.187 90.5481 20.0625 89.6269 18.8921L87.4923 18.7592C86.45 21.037 87.0418 25.5697 87.0418 28.2296L89.7279 28.7833L90.2878 25.0873C93.073 25.8576 92.4127 29.8346 96.1606 28.3459C96.4076 26.9097 93.7443 24.6623 93.0093 23.3944C94.287 21.1567 95.9031 20.3878 96.045 18.7765C92.6439 17.204 92.4791 21.0529 90.193 21.9277Z" fill="#070707"/>
<path fill-rule="evenodd" clip-rule="evenodd" d="M97.3954 20.1268C98.3733 21.5221 98.4924 21.0314 100.547 21.0273V28.2295L103.233 28.7832C104.22 26.5698 103.698 23.4172 103.698 21.0273C105.931 21.0273 106.628 21.2363 106.848 18.7765C104.598 18.7765 97.821 17.6933 97.3954 20.1268Z" fill="#070707"/>
<path fill-rule="evenodd" clip-rule="evenodd" d="M158.167 20.1268C159.145 21.5221 159.263 21.0314 161.318 21.0273V28.2295L164.004 28.7832C164.992 26.5698 164.469 23.4172 164.469 21.0273C166.703 21.0273 167.399 21.2363 167.62 18.7765C165.37 18.7765 158.592 17.6933 158.167 20.1268Z" fill="#070707"/>
<path fill-rule="evenodd" clip-rule="evenodd" d="M173.502 20.9027C170.146 22.568 172.009 28.1057 175.894 26.6425C179.304 25.3586 177.378 18.9793 173.502 20.9027Z" fill="white"/>
<path fill-rule="evenodd" clip-rule="evenodd" d="M197.174 20.8487L197.068 23.0109L199.699 23.339L199.706 20.5774L197.174 20.8487Z" fill="white"/>
<path fill-rule="evenodd" clip-rule="evenodd" d="M149.697 22.5624C151.239 22.451 153.446 22.2191 154.403 21.5713C152.66 19.9725 150.383 20.1413 149.697 22.5624Z" fill="white"/>
<path fill-rule="evenodd" clip-rule="evenodd" d="M77.4356 22.6185C78.3368 22.5036 79.3141 22.3901 80.2055 22.2261L82.1013 21.4917C80.1162 19.7898 78.3894 20.3179 77.4356 22.6185Z" fill="white"/>
</svg>
