<svg width="20" height="20" viewBox="0 0 20 20" fill="none" xmlns="http://www.w3.org/2000/svg">
<path d="M0 1.2C0 0.537264 0.537264 0 1.2 0H3.78344C4.37005 0 4.87068 0.424092 4.96712 1.00272L5.8543 6.32576C5.9409 6.84541 5.67847 7.36076 5.20728 7.59636L3.34951 8.52524C4.68907 11.854 7.34602 14.5109 10.6747 15.8504L11.6036 13.9927C11.8392 13.5215 12.3546 13.259 12.8742 13.3457L18.1973 14.2328C18.7759 14.3293 19.2 14.83 19.2 15.4165V18C19.2 18.6628 18.6628 19.2 18 19.2H15.6C6.98436 19.2 0 12.2156 0 3.6V1.2Z" fill="#34D1BF"/>
</svg>
