<svg width="14" height="14" viewBox="0 0 14 14" fill="none" xmlns="http://www.w3.org/2000/svg">
<path fill-rule="evenodd" clip-rule="evenodd" d="M7 14C10.866 14 14 10.866 14 7C14 3.134 10.866 0 7 0C3.134 0 0 3.134 0 7C0 10.866 3.134 14 7 14ZM10.2437 5.86872C10.5854 5.52701 10.5854 4.97299 10.2437 4.63128C9.90202 4.28957 9.34797 4.28957 9.00629 4.63128L6.125 7.51257L4.99372 6.38128C4.65201 6.03957 4.09799 6.03957 3.75628 6.38128C3.41457 6.72299 3.41457 7.27703 3.75628 7.61871L5.50628 9.36871C5.84799 9.7104 6.40201 9.7104 6.74372 9.36871L10.2437 5.86872Z" fill="#2F67D7"/>
</svg>
